<?xml version="1.0" encoding="UTF-8"?>
<svg id="_レイヤー_2" data-name="レイヤー 2" xmlns="http://www.w3.org/2000/svg" viewBox="0 0 160.18 160.18">
  <defs>
    <style>
      .cls-1 {
        fill: #fff;
        font-family: HiraKakuStd-W8-83pv-RKSJ-H, 'Hiragino Kaku Gothic Std';
        font-size: 40px;
      }

      .cls-2 {
        fill: none;
        stroke: #fff;
        stroke-linecap: round;
        stroke-linejoin: round;
        stroke-width: 1.5px;
      }

      .cls-3 {
        fill: #19448e;
      }
    </style>
  </defs>
  <g id="layer">
    <g>
      <path class="cls-3" d="M160.07,80.05c0,.32-.01.64-.02.96s.14.64.13.96-.22.63-.24.95-.08.64-.1.96-.07.64-.09.95-.27.62-.29.94.08.64.05.96.33.67.29.99-.41.6-.44.92.23.67.19.99-.42.59-.46.91.13.66.08.98-.21.61-.26.93-.24.61-.3.92.21.68.15,1-.26.6-.32.92-.32.59-.38.9-.12.62-.19.94-.2.61-.27.92.36.74.28,1.05-.35.57-.43.88.05.68-.03.98-.58.5-.66.81.26.74.17,1.05-.28.58-.38.89-.06.65-.16.96-.37.55-.47.86-.51.5-.62.8-.29.57-.4.87.11.72,0,1.02-.33.56-.45.85-.29.57-.41.87-.13.64-.25.93-.11.65-.24.94-.65.41-.78.7.05.72-.09,1.01-.62.41-.76.7.21.81.07,1.1-.27.58-.41.87-.74.34-.89.62-.19.62-.34.9-.1.67-.25.95-.19.63-.35.9-.75.31-.91.58.06.78-.1,1.05-.33.55-.49.82-.31.56-.48.83-.47.46-.64.73-.41.49-.59.76-.49.44-.67.7-.48.44-.66.7,0,.78-.18,1.04-.39.5-.58.76-.55.38-.75.64-.55.38-.75.63-.15.7-.34.94-.43.47-.63.72-.53.39-.73.63-.08.77-.29,1.01-.84.11-1.05.35-.08.78-.29,1.02-.74.19-.95.42-.24.65-.46.88-.48.43-.7.66-.4.5-.62.73-.58.32-.81.54-.14.77-.37.99-.79.1-1.02.32-.39.51-.63.73-.46.44-.7.66-.4.51-.64.72-.62.26-.86.47-.4.51-.65.71-.39.54-.63.74-.44.48-.69.68-.59.29-.84.48-.56.32-.81.52-.43.49-.69.67-.75.05-1.01.23-.39.55-.65.73-.3.68-.57.86-.84-.11-1.11.07-.3.71-.57.88-.59.27-.86.44-.53.35-.8.52-.75,0-1.02.16-.4.57-.68.73-.56.3-.84.46-.47.46-.75.61-.75-.04-1.03.11-.39.63-.67.78-.47.48-.76.63-.81-.19-1.1-.05-.52.39-.81.53-.55.33-.84.46-.6.21-.89.34-.56.32-.85.45-.51.44-.8.56-.63.16-.92.28-.72-.09-1.02.02-.5.47-.8.58-.62.15-.92.26-.64.11-.94.22-.54.38-.85.48-.58.26-.89.36-.67,0-.97.09-.55.37-.86.46-.62.14-.93.23-.59.27-.89.36-.71-.21-1.02-.13-.61.19-.92.27-.49.7-.8.77-.66-.03-.98.03-.69-.19-1-.12-.55.48-.87.54-.65-.02-.97.03-.58.39-.9.44-.64.05-.96.1-.66-.08-.97-.03-.66-.15-.98-.11-.64,0-.96.04-.61.27-.93.31-.61.34-.93.37-.68-.4-.99-.38-.61.37-.93.39-.64-.05-.96-.03-.62.31-.94.33-.65-.33-.97-.32-.63.34-.95.34-.64.09-.96.1-.64-.18-.96-.18-.64-.11-.96-.11-.64.06-.96.06-.63-.32-.95-.33-.64-.02-.96-.04-.66.41-.98.39-.61-.41-.93-.43-.66.29-.98.26-.61-.35-.93-.38-.64-.04-.95-.07-.66.14-.98.1-.64-.04-.96-.08-.6-.31-.92-.36-.64-.01-.96-.06-.62-.15-.94-.2-.58-.37-.9-.43-.66.09-.98.03-.68.12-.99.06-.58-.33-.9-.4-.63-.12-.94-.19-.7.18-1.01.1-.51-.59-.82-.67-.74.29-1.05.21-.47-.7-.78-.79-.62-.16-.92-.25-.69.09-1,0-.59-.25-.89-.35-.7.08-1-.02-.58-.29-.88-.39-.48-.56-.78-.67-.69.03-.99-.08-.49-.5-.79-.61-.61-.19-.9-.31-.72.06-1.01-.06-.64-.13-.93-.26-.44-.6-.73-.73-.48-.48-.77-.61-.83.26-1.11.12-.44-.56-.73-.7-.59-.25-.87-.4-.47-.48-.75-.63-.79.13-1.07-.02-.56-.32-.84-.47-.56-.32-.83-.48-.4-.59-.67-.75-.61-.22-.89-.38-.49-.42-.76-.59-.72-.05-.99-.22-.44-.51-.7-.68-.54-.35-.8-.53-.55-.33-.81-.51-.49-.42-.75-.6-.4-.54-.65-.73-.58-.28-.84-.47-.36-.58-.62-.77-.81.01-1.06-.18-.54-.35-.79-.55-.4-.53-.65-.73-.25-.7-.5-.9-.7-.16-.94-.37-.37-.55-.61-.76-.56-.33-.8-.54-.44-.47-.67-.68-.64-.26-.87-.47-.29-.62-.52-.84-.44-.46-.67-.69-.64-.26-.87-.49-.17-.72-.4-.95-.66-.25-.88-.48-.14-.74-.35-.98-.72-.21-.93-.44-.38-.51-.59-.75-.57-.35-.78-.6-.02-.82-.23-1.06-.69-.25-.9-.5-.09-.74-.29-.99-.85-.14-1.05-.39-.18-.67-.37-.92-.33-.55-.52-.81-.28-.59-.46-.85-.53-.41-.71-.67-.51-.43-.69-.69-.24-.61-.42-.88-.38-.51-.56-.78-.28-.58-.46-.85-.28-.58-.44-.85-.46-.47-.62-.74-.11-.68-.27-.95-.43-.49-.59-.77-.55-.42-.71-.7-.28-.58-.43-.86-.24-.6-.39-.88-.41-.51-.55-.79.05-.74-.09-1.02-.21-.6-.35-.89-.16-.62-.3-.91-.79-.34-.92-.63-.29-.57-.42-.87.1-.74-.03-1.03-.07-.66-.19-.95-.37-.54-.48-.84-.12-.64-.23-.93-.75-.4-.86-.7.31-.79.21-1.09-.21-.6-.31-.9-.68-.45-.77-.75.11-.7.01-1.01-.06-.65-.15-.95-.16-.61-.25-.92-.26-.59-.35-.9-.45-.54-.53-.85.29-.73.22-1.04-.54-.53-.61-.84-.29-.59-.35-.9-.08-.64-.14-.95.24-.7.18-1.01.02-.65-.04-.96-.34-.59-.39-.9-.19-.62-.24-.93-.29-.6-.34-.92.02-.65-.02-.97-.16-.62-.2-.94.36-.68.33-1-.6-.58-.63-.9.35-.67.32-.99-.15-.63-.17-.95-.11-.63-.13-.95-.28-.63-.3-.95.38-.66.37-.97-.02-.64-.03-.96S0,81.34,0,81.02s.04-.64.04-.96.39-.64.39-.96-.25-.64-.24-.96-.16-.65-.15-.97.61-.62.63-.93-.05-.64-.04-.96-.18-.65-.16-.97.06-.64.08-.96-.06-.65-.03-.97.25-.62.28-.94-.03-.65,0-.96.24-.61.28-.93-.03-.65.02-.96.07-.64.12-.95-.09-.66-.04-.98.47-.57.53-.88-.04-.66.02-.97.22-.61.29-.92.16-.62.22-.93.29-.59.36-.9.17-.61.24-.92-.03-.66.05-.97.25-.59.34-.9.06-.65.14-.95.18-.61.27-.92.09-.64.19-.94.29-.58.39-.88.06-.65.16-.96.19-.61.3-.91.04-.66.15-.96.58-.47.69-.77-.15-.74-.04-1.04.21-.61.33-.9.59-.45.71-.75.44-.51.56-.8-.16-.77-.03-1.06.53-.46.66-.75.28-.57.41-.86.23-.6.37-.88.21-.61.36-.89.37-.53.52-.81.29-.57.45-.85.18-.63.34-.91.39-.51.55-.79.25-.59.41-.87.44-.48.61-.75.17-.64.34-.92.26-.59.44-.86.76-.27.93-.54.13-.67.31-.94.15-.67.33-.93.66-.32.85-.58.35-.53.54-.79.47-.44.66-.7.38-.51.58-.76.34-.54.54-.79.22-.64.41-.89.21-.65.41-.9.77-.2.97-.44.02-.82.23-1.06.41-.5.62-.74.49-.42.7-.66.78-.16.99-.39.18-.7.4-.93.72-.2.94-.42.18-.71.41-.94.66-.24.89-.46.5-.4.72-.62.16-.75.4-.97.6-.3.83-.51.23-.7.47-.91.52-.38.76-.59.69-.18.93-.39.65-.22.89-.42.36-.57.6-.77.6-.27.85-.47.46-.45.71-.64.52-.37.77-.56.37-.57.63-.76.61-.25.87-.43.38-.57.64-.75.63-.2.9-.38.62-.21.89-.39.42-.52.69-.69.42-.53.69-.7.72-.06.99-.22.44-.5.72-.66.4-.58.68-.74.78.07,1.05-.09.32-.74.6-.89.67-.11.95-.26.5-.42.78-.57.55-.33.83-.48.81.2,1.1.06.32-.81.61-.94.71.01,1-.12.66-.09.95-.22.57-.27.87-.4.53-.39.82-.51.47-.54.77-.66.6-.22.9-.34.75.18,1.05.07.43-.67.73-.78.77.27,1.08.17.56-.32.86-.42.57-.29.88-.39.63-.11.94-.2.57-.33.87-.42.7.14,1.01.06.51-.53.82-.61.61-.19.92-.27.64-.06.95-.13.61-.22.92-.29.65-.03.96-.1.56-.42.88-.48.69.2,1,.13.61-.18.93-.24.6-.26.92-.32.64-.06.95-.11.67.16.99.12.58-.46.9-.5.65.02.96-.02.67.24.99.2.59-.54.9-.57.68.45,1,.42.63-.09.95-.11.63-.11.95-.12.62-.41.94-.42.64-.06.96-.07.64.1.96.09.64.34.96.34.64,0,.96,0,.64-.21.96-.21.63.21.95.21.64.05.95.07.66-.43.98-.41.62.45.94.47.64-.05.96-.03.67-.3.98-.28.65,0,.96.03.64.07.96.11.6.39.92.43.65-.08.97-.04.62.17.94.22.65-.04.97.01.61.26.92.31.68-.15.99-.09.62.19.93.25.61.19.93.26.62.17.93.24.53.53.85.6.72-.26,1.03-.18.67-.05.98.03.47.72.78.81.75-.33,1.06-.24.54.44.84.54.58.27.89.36.69-.06.99.03.59.25.89.35.53.43.83.53.59.25.89.36.56.31.86.42.64.12.93.23.77-.2,1.06-.08.36.81.65.93.75-.12,1.04,0,.55.34.84.47.6.22.89.35.53.38.81.52.57.29.85.43.72-.02,1.01.13.53.36.82.51.49.45.77.6.7.05.98.2.34.71.61.87.6.24.87.4.49.42.77.58.66.15.93.32.47.45.74.62.64.18.91.35.42.53.68.7.63.2.9.38.35.61.61.79.78,0,1.04.2.54.35.79.54.44.48.7.67.44.47.7.67.38.55.63.75.43.48.67.69.85-.03,1.1.17.42.49.67.7.25.69.49.9.56.33.79.54.44.47.67.68.41.5.64.72.46.43.69.66.78.11,1.01.34.35.55.58.78.25.65.47.88.8.12,1.02.36.32.58.54.81.38.52.59.76.56.36.77.6.45.46.66.7.03.81.23,1.06.44.46.65.7.31.57.51.82.84.15,1.04.4.15.69.34.95.54.4.73.65.48.44.67.7.09.72.27.98.24.61.42.87.28.57.46.84.7.3.87.57.14.67.32.93.67.34.84.61-.1.81.06,1.08.48.45.64.73.33.54.49.82.47.47.63.75.32.55.47.83.15.64.3.93.09.67.23.96.3.56.44.84.67.38.81.67-.17.78-.03,1.07.8.34.93.63-.09.74.04,1.03.05.67.17.97.54.46.66.76.32.56.44.86.08.65.19.95.23.59.34.89.03.67.13.97.21.6.31.9.37.55.47.85.1.64.19.94.11.63.2.94.28.58.37.89.28.58.36.89.32.58.4.89-.1.68-.02.99.07.64.14.95.07.64.13.95.21.6.28.92.36.58.42.89.28.6.34.91-.35.71-.3,1.02.31.59.36.91.23.61.27.93-.32.69-.28,1,.58.57.61.89-.39.69-.36,1,.59.58.62.9-.11.65-.08.97.1.63.12.95-.15.65-.13.97.35.62.36.94-.31.65-.3.97.33.63.33.95-.21.64-.21.96.11.64.11.96Z"/>
      <g>
        <text class="cls-1" transform="translate(31.78 99.11)"><tspan x="0" y="0">TOP</tspan></text>
        <g>
          <path class="cls-2" d="M52.33,74c.17.3,10.22-6.3,10.39-6,.1.18-3.54,5.72-3.43,5.9.06.1,2.14-1.36,2.19-1.27.03.05-.19,1.74-.16,1.79.01.02.77-.47.79-.45"/>
          <path class="cls-2" d="M31.79,67.62s1.07-.64,1.08-.62c.06.1-1.12,3.45-1.06,3.55.09.16,5.48-3.38,5.57-3.22.11.19-5.79,4.46-5.68,4.65.13.23,7.87-4.86,8.01-4.62s-5.63,6.84-5.5,7.07c.21.37,12.81-7.89,13.02-7.52.18.31-9.91,6.65-9.73,6.96.21.37,11.64-7.21,11.85-6.84.2.34-11.21,6.58-11.02,6.92.21.36,11.94-7.38,12.15-7.01s-12.93,6.99-12.71,7.38,11.95-7.38,12.16-7.02c.19.34-11.2,6.39-11.01,6.73.21.36,11.34-7.03,11.55-6.67.19.33-11.19,6.12-11,6.45.21.36,10.82-6.73,11.03-6.37.18.32-10.2,6.58-10.02,6.9.21.36,12.62-7.77,12.83-7.41.18.32-9.84,7.25-9.66,7.57.23.4,12.49-7.74,12.72-7.34s-13.19,7.13-12.96,7.52,13.32-8.23,13.55-7.82c.27.46-14.49,10.25-14.22,10.71.31.54,17.54-10.85,17.85-10.3.34.59-17.86,14.12-17.52,14.71.14.24,8.25-5.09,8.39-4.84.16.27-8.3,6.39-8.14,6.66.14.24,8.92-5.48,9.06-5.23.2.35-9.98,8.96-9.78,9.31.14.24,8.92-5.47,9.06-5.23.18.3-9.16,7.24-8.98,7.54.14.24,8.42-5.18,8.56-4.94.16.28-8.93,5.78-8.77,6.06.14.24,9.12-5.59,9.26-5.34.2.34-9.64,8.69-9.44,9.03.14.24,9.03-5.54,9.17-5.29.19.33-9,8.89-8.81,9.22.14.25,8.49-5.23,8.64-4.99.17.3-9.24,6.68-9.07,6.98.14.24,8.64-5.31,8.78-5.07.07.13-.77,4.71-.7,4.84.01.02,2.01-1.19,2.02-1.17"/>
          <path class="cls-2" d="M79.14,73.15c.16.27,9.31-5.74,9.47-5.47.11.19-4.11,6.03-4,6.22.12.21,5.76-3.6,5.88-3.39.11.18-5.34,4.53-5.24,4.72.12.2,6.82-4.21,6.94-4.01.13.22-7.32,4.14-7.19,4.35.12.2,7.65-4.69,7.77-4.49.14.23-5.21,7.23-5.07,7.46.12.21,7.47-4.6,7.6-4.39.15.25-7.04,6.65-6.89,6.9.13.22,7.42-4.58,7.55-4.36.15.25-8.28,5.21-8.13,5.46.13.23,8.59-5.26,8.72-5.04.15.26-8.21,5.83-8.06,6.09.13.23,6.81-4.24,6.94-4.01.13.22-6.93,4.8-6.8,5.02.14.24,7.84-4.84,7.97-4.6.19.34-9.66,8.48-9.47,8.82.15.26,9.98-6.11,10.13-5.85.2.35-11.03,7.68-10.83,8.03.17.29,9.58-5.92,9.75-5.63.19.33-10.97,6.73-10.77,7.06.18.32,10.9-6.71,11.08-6.4"/>
          <path class="cls-2" d="M68.63,70.82c.1.17,5.96-3.67,6.06-3.5.19.33-9.64,8.06-9.45,8.39.27.46,15.39-9.51,15.66-9.04.3.51-16.72,10.34-16.42,10.85.31.54,18.09-11.17,18.41-10.63.36.62-19.25,14.18-18.89,14.8.19.32,11.32-6.97,11.51-6.64.2.34-10.99,7.23-10.79,7.57.16.28,8.88-5.5,9.04-5.22s-9.37,5.59-9.2,5.87,8.88-5.49,9.04-5.22c.17.29-9.84,5.33-9.67,5.62.16.27,8.88-5.49,9.04-5.22s-8.68,5.04-8.53,5.3,8.11-5.04,8.26-4.77c.14.24-8.02,4.42-7.89,4.66.15.26,7.54-4.7,7.69-4.44s-8.74,5.79-8.58,6.07c.15.25,8.98-5.52,9.13-5.27.16.27-8.24,6.39-8.08,6.66.14.24,7.25-4.5,7.39-4.27s-7.76,4.21-7.63,4.44,8.01-4.94,8.15-4.71c.17.29-8.56,7.06-8.39,7.35.13.23,7.23-4.47,7.36-4.25.14.25-5.77,7.6-5.63,7.85.12.21,7.06-4.35,7.18-4.15s-6.2,5.26-6.08,5.47,7.6-4.66,7.72-4.45c.15.25-6.51,7.09-6.37,7.35.12.21,7.69-4.71,7.81-4.51.13.22-6.17,5.63-6.04,5.85s7.77-4.78,7.89-4.56-7.42,4.97-7.29,5.2,9-5.52,9.14-5.28-5.89,6.67-5.76,6.91c.36.62,21.24-13.08,21.59-12.47.3.51-15.32,12.3-15.02,12.81.21.37,12.52-7.72,12.73-7.35.17.3-9.29,6.64-9.12,6.94.1.17,6.2-3.8,6.3-3.63"/>
          <path class="cls-2" d="M109.76,89c.31.54,17.79-10.99,18.1-10.45s-17.32,10.56-17.02,11.09c.27.46,16.71-10.26,16.97-9.8.24.41-12.93,9.25-12.69,9.67.18.31,11.87-7.27,12.05-6.96.16.27-8.52,6.2-8.36,6.47.08.14,6.31-3.84,6.4-3.69"/>
          <path class="cls-2" d="M108.99,74.17c.18.32,10.66-6.58,10.85-6.26s-10.12,5.73-9.95,6.03,11.26-6.91,11.44-6.6c.14.25-7.42,5.97-7.28,6.22.15.27,8.69-5.37,8.84-5.11s-8.27,5.54-8.12,5.8c.14.24,9.08-5.56,9.21-5.32.13.22-5.73,6.13-5.61,6.35s6.65-4.12,6.77-3.91c.11.19-6.16,3.98-6.05,4.17.12.21,7.25-4.46,7.37-4.25.14.25-7.79,5.66-7.64,5.91.13.22,7.8-4.79,7.93-4.58.15.26-7.51,6.49-7.36,6.75.14.24,6.89-4.3,7.03-4.06s-7.74,4.99-7.6,5.23c.15.26,7.98-4.96,8.13-4.7"/>
          <path class="cls-2" d="M99.95,67.79s1.09-.65,1.1-.63c.05.09-.92,3.34-.86,3.43.09.16,5.49-3.38,5.58-3.22.11.19-5.76,4.44-5.65,4.63.13.23,7.85-4.84,7.98-4.61.17.29-7.76,7.99-7.59,8.28.25.43,14.86-9.15,15.11-8.72s-14.57,9.16-14.31,9.6c.29.5,15.95-9.87,16.24-9.37s-16.67,9.52-16.38,10.02,17.03-10.52,17.33-10-18.27,9.87-17.96,10.4,17.09-10.56,17.39-10.04-17.18,9.61-16.88,10.12c.31.54,16.97-10.51,17.28-9.97.29.51-17.2,9.36-16.91,9.86.31.54,16.58-10.29,16.89-9.75s-18.13,10.85-17.81,11.4c.14.24,8.38-5.15,8.51-4.91.15.26-7.8,6.15-7.65,6.41.14.24,7.13-4.43,7.26-4.19s-7.64,4.15-7.51,4.37,7.9-4.87,8.03-4.64c.17.3-8.88,7.23-8.71,7.53.14.24,7.56-4.68,7.69-4.44.17.3-7.54,8.55-7.37,8.85s9.9-6.11,10.07-5.81c.19.32-10.01,7.31-9.82,7.63.23.4,13.91-8.56,14.14-8.16.29.5-15.14,11.74-14.85,12.24.14.24,8.61-5.29,8.75-5.05.17.3-8.86,7.08-8.69,7.38.14.24,8.13-5.01,8.27-4.77.16.27-8.67,5.64-8.51,5.91.14.24,8.86-5.43,9-5.2.18.31-8.73,8.2-8.55,8.51.13.22,8.18-5.01,8.3-4.79.07.12-1,4.33-.93,4.45.01.02,1.03-.62,1.04-.6"/>
        </g>
      </g>
    </g>
  </g>
</svg>