<?xml version="1.0" encoding="UTF-8"?>
<svg id="_レイヤー_2" data-name="レイヤー 2" xmlns="http://www.w3.org/2000/svg" viewBox="0 0 339.21 323.92">
  <defs>
    <style>
      .cls-1 {
        fill: #19448e;
        font-family: ADS-mambo-83pv-RKSJ-H, ADS-mambo;
        font-size: 39px;
      }
    </style>
  </defs>
  <g id="layer">
    <text class="cls-1" transform="translate(42.96 208.55) rotate(-106.79)"><tspan x="0" y="0">p</tspan></text>
    <text class="cls-1" transform="translate(36.4 186.43) rotate(-96.99)"><tspan x="0" y="0">r</tspan></text>
    <text class="cls-1" transform="translate(33.82 168.3) rotate(-87.03)"><tspan x="0" y="0">o</tspan></text>
    <text class="cls-1" transform="translate(34.57 144.26) rotate(-74.27)"><tspan x="0" y="0">fi</tspan></text>
    <text class="cls-1" transform="translate(43.49 115.23) rotate(-64.4)"><tspan x="0" y="0">l</tspan></text>
    <text class="cls-1" transform="translate(48.15 104.22) rotate(-55.94)"><tspan x="0" y="0">e</tspan></text>
    <text class="cls-1" transform="translate(62.34 83.59) rotate(-46.32)"><tspan x="0" y="0"> </tspan></text>
    <text class="cls-1" transform="translate(75.12 70.12) rotate(-38.33)"><tspan x="0" y="0"> </tspan></text>
    <text class="cls-1" transform="translate(89.5 58.43) rotate(-29.55)"><tspan x="0" y="0">p</tspan></text>
    <text class="cls-1" transform="translate(109.73 47.08) rotate(-20.94)"><tspan x="0" y="0">r</tspan></text>
    <text class="cls-1" transform="translate(126.85 40.21) rotate(-12.2)"><tspan x="0" y="0">o</tspan></text>
    <text class="cls-1" transform="translate(150.45 34.71) rotate(-1.33)"><tspan x="0" y="0">fi</tspan></text>
    <text class="cls-1" transform="translate(180.98 34.61) rotate(7.05)"><tspan x="0" y="0">l</tspan></text>
    <text class="cls-1" transform="translate(192.99 35.6) rotate(14.58)"><tspan x="0" y="0">e</tspan></text>
    <text class="cls-1" transform="translate(217.23 42.08) rotate(23.5)"><tspan x="0" y="0"> </tspan></text>
    <text class="cls-1" transform="translate(234.34 49.45) rotate(31.24)"><tspan x="0" y="0"> </tspan></text>
    <text class="cls-1" transform="translate(250.3 58.83) rotate(40.04)"><tspan x="0" y="0">p</tspan></text>
    <text class="cls-1" transform="translate(267.96 73.8) rotate(49.04)"><tspan x="0" y="0">r</tspan></text>
    <text class="cls-1" transform="translate(280.26 87.44) rotate(58.56)"><tspan x="0" y="0">o</tspan></text>
    <text class="cls-1" transform="translate(293.25 107.72) rotate(71.08)"><tspan x="0" y="0">fi</tspan></text>
    <text class="cls-1" transform="translate(302.42 136.66) rotate(81.04)"><tspan x="0" y="0">l</tspan></text>
    <text class="cls-1" transform="translate(304.67 148.25) rotate(89.02)"><tspan x="0" y="0">e</tspan></text>
    <text class="cls-1" transform="translate(304.77 173.3) rotate(99.92)"><tspan x="0" y="0"> </tspan></text>
    <text class="cls-1" transform="translate(301.65 191.55) rotate(108.67)"><tspan x="0" y="0"> </tspan></text>
    <text class="cls-1" transform="translate(296.02 209.09) rotate(118.32)"><tspan x="0" y="0">p</tspan></text>
    <text class="cls-1" transform="translate(284.95 229.38) rotate(127.68)"><tspan x="0" y="0">r</tspan></text>
    <text class="cls-1" transform="translate(273.97 244.13) rotate(137.02)"><tspan x="0" y="0">o</tspan></text>
    <text class="cls-1" transform="translate(256.58 260.91) rotate(148.54)"><tspan x="0" y="0">fi</tspan></text>
    <text class="cls-1" transform="translate(230.24 276.27) rotate(157.34)"><tspan x="0" y="0">l</tspan></text>
    <text class="cls-1" transform="translate(219.34 281.36) rotate(164.97)"><tspan x="0" y="0">e</tspan></text>
    <text class="cls-1" transform="translate(195.02 287.7) rotate(173.77)"><tspan x="0" y="0"> </tspan></text>
    <text class="cls-1" transform="translate(176.52 289.78) rotate(-178.89)"><tspan x="0" y="0"> </tspan></text>
    <text class="cls-1" transform="translate(157.92 289.66) rotate(-170.57)"><tspan x="0" y="0">p</tspan></text>
    <text class="cls-1" transform="translate(135.04 285.76) rotate(-162.11)"><tspan x="0" y="0">r</tspan></text>
    <text class="cls-1" transform="translate(117.4 280.39) rotate(-153.3)"><tspan x="0" y="0">o</tspan></text>
    <text class="cls-1" transform="translate(95.61 269.92) rotate(-141.9)"><tspan x="0" y="0">fi</tspan></text>
    <text class="cls-1" transform="translate(72.04 250.62) rotate(-132.79)"><tspan x="0" y="0">l</tspan></text>
    <text class="cls-1" transform="translate(63.51 242.21) rotate(-124.57)"><tspan x="0" y="0">e</tspan></text>
    <text class="cls-1" transform="translate(49.48 221.54) rotate(-114.67)"><tspan x="0" y="0"> </tspan></text>
    <text class="cls-1" transform="translate(41.68 204.74) rotate(-105.99)"><tspan x="0" y="0"> </tspan></text>
  </g>
</svg>